<svg xmlns="http://www.w3.org/2000/svg" viewBox="0 0 800 500" role="img" aria-labelledby="t d">
<title id="t">Aetherglass Breaker</title><desc id="d">A glowing pulse ball and cyan paddle beneath a vaulted field of blue, violet, and amber crystal bricks.</desc>
<defs><linearGradient id="bg" x1="0" y1="0" x2="1" y2="1"><stop stop-color="#071b3f"/><stop offset=".55" stop-color="#090d22"/><stop offset="1" stop-color="#030712"/></linearGradient><radialGradient id="orb"><stop stop-color="#fff"/><stop offset=".35" stop-color="#e9d5ff"/><stop offset="1" stop-color="#a78bfa"/></radialGradient><filter id="g"><feGaussianBlur stdDeviation="8"/></filter></defs>
<rect width="800" height="500" rx="36" fill="url(#bg)"/><g opacity=".18" stroke="#67e8f9"><path d="M0 84h800M0 154h800M0 224h800M0 294h800M0 364h800"/><path d="M80 0v500M170 0v500M260 0v500M350 0v500M440 0v500M530 0v500M620 0v500M710 0v500"/></g>
<g filter="url(#g)" opacity=".45" fill="#22d3ee"><rect x="96" y="93" width="608" height="25" rx="8"/><rect x="140" y="147" width="520" height="25" rx="8"/></g>
<g stroke="#ffffff55" stroke-width="2"><g fill="#38bdf8"><rect x="92" y="82" width="92" height="34" rx="9"/><rect x="194" y="82" width="92" height="34" rx="9"/><rect x="296" y="82" width="92" height="34" rx="9"/><rect x="398" y="82" width="92" height="34" rx="9"/><rect x="500" y="82" width="92" height="34" rx="9"/><rect x="602" y="82" width="92" height="34" rx="9"/></g><g fill="#a5b4fc"><rect x="143" y="130" width="92" height="34" rx="9"/><rect x="245" y="130" width="92" height="34" rx="9"/><rect x="449" y="130" width="92" height="34" rx="9"/><rect x="551" y="130" width="92" height="34" rx="9"/></g><g fill="#f0abfc"><rect x="347" y="130" width="92" height="82" rx="12"/></g><g fill="#f59e0b"><rect x="194" y="178" width="92" height="34" rx="9"/><rect x="500" y="178" width="92" height="34" rx="9"/></g><g fill="#67e8f9"><rect x="92" y="226" width="92" height="34" rx="9"/><rect x="296" y="226" width="92" height="34" rx="9"/><rect x="500" y="226" width="92" height="34" rx="9"/><rect x="602" y="226" width="92" height="34" rx="9"/></g></g>
<ellipse cx="404" cy="343" rx="61" ry="21" fill="#a78bfa" opacity=".24" filter="url(#g)"/><circle cx="404" cy="332" r="22" fill="url(#orb)"/><rect x="275" y="407" width="258" height="26" rx="13" fill="#67e8f9"/><rect x="318" y="414" width="172" height="5" rx="2.5" fill="#fff" opacity=".65"/>
<text x="42" y="52" fill="#67e8f9" font-family="system-ui,sans-serif" font-size="16" font-weight="800" letter-spacing="4">ARCHITECT INDUSTRIES</text><text x="400" y="478" text-anchor="middle" fill="#f8fafc" font-family="system-ui,sans-serif" font-size="39" font-weight="900" letter-spacing="2">AETHERGLASS BREAKER</text>
</svg>
