<svg xmlns="http://www.w3.org/2000/svg" viewBox="0 0 960 600"><defs><linearGradient id="g" x2="1" y2="1"><stop stop-color="#07140b"/><stop offset="1" stop-color="#173b1f"/></linearGradient></defs><rect width="960" height="600" fill="url(#g)"/><path d="M0 390 H210 V285 H430 V420 H660 V310 H960" fill="none" stroke="#9f7b52" stroke-width="70"/><g><g transform="translate(270 250)"><circle r="56" fill="#284f2f" stroke="#bef264" stroke-width="5"/><circle r="18" fill="#fde047"/><path d="M0-18V-70M18 0h70M0 18v70M-18 0h-70" stroke="#a3e635" stroke-width="13" stroke-linecap="round"/></g><g transform="translate(680 405)"><circle r="54" fill="#164e63" stroke="#67e8f9" stroke-width="5"/><path d="M0-52V52M-45-26L45 26M-45 26L45-26" stroke="#a5f3fc" stroke-width="11" stroke-linecap="round"/></g><g transform="translate(485 170)"><circle r="46" fill="#581c87" stroke="#f0abfc" stroke-width="5"/><circle r="7" fill="#f5d0fe"/><circle cx="-18" cy="-10" r="8" fill="#e879f9"/><circle cx="18" cy="-10" r="8" fill="#e879f9"/><circle cy="20" r="8" fill="#e879f9"/></g></g><g fill="#fb7185"><circle cx="430" cy="418" r="18"/><circle cx="525" cy="418" r="14"/><circle cx="615" cy="418" r="20"/><circle cx="705" cy="354" r="28" fill="#c026d3"/></g><text x="60" y="110" fill="#fff" font-family="system-ui,sans-serif" font-size="65" font-weight="900">BASTION</text><text x="60" y="174" fill="#bef264" font-family="system-ui,sans-serif" font-size="58" font-weight="900">BLOOM 1.5</text><text x="62" y="220" fill="#d9f99d" font-family="system-ui,sans-serif" font-size="22" font-weight="700">TEN-WAVE GARDEN CAMPAIGN</text></svg>
