<svg xmlns="http://www.w3.org/2000/svg" viewBox="0 0 960 600"><defs><linearGradient id="g" x2="1" y2="1"><stop stop-color="#3b102b"/><stop offset="1" stop-color="#120914"/></linearGradient></defs><rect width="960" height="600" fill="url(#g)"/><g opacity=".35" stroke="#f9a8d4" stroke-width="5" fill="none"><path d="M90 420L220 330 330 370 450 230 570 290 690 160 850 210"/><path d="M90 455L220 410 330 430 450 350 570 390 690 300 850 325"/></g><g transform="translate(470 160)"><rect x="-35" y="0" width="70" height="220" rx="20" fill="#fb7185"/><rect x="55" y="70" width="70" height="150" rx="20" fill="#67e8f9"/><rect x="145" y="35" width="70" height="185" rx="20" fill="#c4b5fd"/><rect x="235" y="105" width="70" height="115" rx="20" fill="#fcd34d"/></g><text x="70" y="95" fill="#fbcfe8" font-family="system-ui" font-size="54" font-weight="900">ECHO</text><text x="70" y="145" fill="#fff" font-family="system-ui" font-size="38" font-weight="800">BAZAAR</text><text x="70" y="540" fill="#d8b4cc" font-family="system-ui" font-size="22">READ THE MARKET BEFORE IT READS YOU.</text></svg>
