<svg xmlns="http://www.w3.org/2000/svg" viewBox="0 0 800 450"><defs><linearGradient id="s" x1="0" y1="0" x2="0" y2="1"><stop stop-color="#0ea5e9"/><stop offset="1" stop-color="#172554"/></linearGradient><linearGradient id="w" x1="0" x2="1"><stop stop-color="#f8fafc"/><stop offset="1" stop-color="#67e8f9"/></linearGradient></defs><rect width="800" height="450" fill="url(#s)"/><circle cx="675" cy="90" r="55" fill="#fde68a" opacity=".9"/><g fill="#fff" opacity=".18"><ellipse cx="155" cy="110" rx="105" ry="24"/><ellipse cx="575" cy="245" rx="125" ry="30"/></g><g stroke="#f8fafc" stroke-width="8" fill="none" opacity=".85"><path d="M170 90v225M630 85v230"/><path d="M170 110h460M170 295h460" stroke-dasharray="10 16" opacity=".35"/></g><g transform="translate(400 235)"><path d="M-165 0L0-70 165 0 55 20 0 55-55 20Z" fill="url(#w)"/><path d="M0-70v125M-165 0L0 15 165 0" fill="none" stroke="#0f172a" stroke-width="6" opacity=".65"/><circle cx="0" cy="28" r="10" fill="#fb7185"/></g><text x="44" y="58" font-family="system-ui,sans-serif" font-weight="800" font-size="34" fill="#fff">KITEGLASS DRIFT</text><text x="46" y="91" font-family="system-ui,sans-serif" font-size="16" fill="#cffafe">THERMAL GATES · GLIDE LINE</text></svg>
