<svg xmlns="http://www.w3.org/2000/svg" viewBox="0 0 1280 800"><defs><linearGradient id="g" x1="0" y1="0" x2="1" y2="1"><stop stop-color="#141133"/><stop offset="1" stop-color="#060914"/></linearGradient><filter id="gl"><feGaussianBlur stdDeviation="12" result="b"/><feMerge><feMergeNode in="b"/><feMergeNode in="SourceGraphic"/></feMerge></filter></defs><rect width="1280" height="800" fill="url(#g)"/><g opacity=".18" stroke="#4f46e5"><path d="M0 120h1280M0 240h1280M0 360h1280M0 480h1280M0 600h1280M0 720h1280"/><path d="M120 0v800M240 0v800M360 0v800M480 0v800M600 0v800M720 0v800M840 0v800M960 0v800M1080 0v800M1200 0v800"/></g><g filter="url(#gl)"><g fill="#8b5cf6"><rect x="750" y="180" width="92" height="92" rx="12"/><rect x="842" y="180" width="92" height="92" rx="12"/><rect x="842" y="272" width="92" height="92" rx="12"/><rect x="934" y="272" width="92" height="92" rx="12"/></g><g fill="#22d3ee"><rect x="880" y="470" width="92" height="92" rx="12"/><rect x="972" y="470" width="92" height="92" rx="12"/><rect x="1064" y="470" width="92" height="92" rx="12"/><rect x="1064" y="378" width="92" height="92" rx="12"/></g></g><text x="92" y="548" fill="#fff" font-family="Arial, sans-serif" font-size="106" font-weight="900">NEON</text><text x="92" y="650" fill="#a5b4fc" font-family="Arial, sans-serif" font-size="106" font-weight="900">STACK</text><text x="98" y="708" fill="#8b93b5" font-family="Arial, sans-serif" font-size="24" font-weight="700" letter-spacing="8">WORLDWIDEGAMES</text></svg>
