<svg xmlns="http://www.w3.org/2000/svg" viewBox="0 0 1600 1000"><defs><radialGradient id="b"><stop stop-color="#17345f"/><stop offset="1" stop-color="#030611"/></radialGradient><linearGradient id="l" x1="0" x2="1"><stop stop-color="#7dd3fc"/><stop offset="1" stop-color="#c4b5fd"/></linearGradient></defs><rect width="1600" height="1000" fill="url(#b)"/><g fill="#dbeafe" opacity=".8"><circle cx="180" cy="170" r="4"/><circle cx="420" cy="110" r="7"/><circle cx="760" cy="250" r="4"/><circle cx="1120" cy="140" r="6"/><circle cx="1370" cy="310" r="4"/><circle cx="1260" cy="640" r="5"/><circle cx="290" cy="520" r="5"/></g><circle cx="910" cy="470" r="238" fill="none" stroke="#45658a" stroke-width="6"/><circle cx="910" cy="470" r="132" fill="none" stroke="#45658a" stroke-width="4"/><path d="M672 470h476M910 232v476" stroke="#45658a" stroke-width="4"/><circle cx="1018" cy="395" r="24" fill="#7dd3fc"/><path d="M1018 350v90M973 395h90" stroke="#e0f2fe" stroke-width="7"/><path d="M320 770c120-190 248-278 385-304l78 76c-134 42-242 133-322 282z" fill="#0d1c34" stroke="#315072" stroke-width="8"/><circle cx="518" cy="681" r="82" fill="#07101e" stroke="#7dd3fc" stroke-width="9"/><circle cx="518" cy="681" r="28" fill="url(#l)"/><text x="105" y="140" fill="#7dd3fc" font-family="system-ui" font-size="34" font-weight="900" letter-spacing="9">ARCHITECT INDUSTRIES</text><text x="105" y="865" fill="white" font-family="system-ui" font-size="104" font-weight="900">STARFALL</text><text x="110" y="942" fill="#b9c9e5" font-family="system-ui" font-size="56" font-weight="700" letter-spacing="7">OBSERVATORY</text></svg>
