<svg xmlns="http://www.w3.org/2000/svg" viewBox="0 0 800 450"><defs><linearGradient id="b" x2="0" y2="1"><stop stop-color="#15172a"/><stop offset="1" stop-color="#050711"/></linearGradient><linearGradient id="r"><stop stop-color="#67e8f9"/><stop offset="1" stop-color="#8b5cf6"/></linearGradient></defs><rect width="800" height="450" rx="28" fill="url(#b)"/><path d="M80 450L255 0h310L720 450z" fill="#1d2538"/><path d="M140 450L315 0M250 450L390 0M390 450L485 0M540 450L560 0" stroke="#29344c" stroke-width="26" opacity=".7"/><g fill="#94a3b8"><ellipse cx="315" cy="365" rx="25" ry="14"/><ellipse cx="390" cy="310" rx="22" ry="13"/><ellipse cx="335" cy="252" rx="24" ry="13"/><ellipse cx="430" cy="195" rx="22" ry="12"/><ellipse cx="370" cy="135" rx="24" ry="13"/></g><circle cx="430" cy="195" r="34" fill="none" stroke="#67e8f9" stroke-width="4" opacity=".7"/><circle cx="390" cy="310" r="13" fill="#f8fafc"/><path d="M390 323v36m0-22l-24 22m24-22l22 21" stroke="url(#r)" stroke-width="8" stroke-linecap="round"/><text x="58" y="78" fill="#a5f3fc" font-family="system-ui" font-weight="900" font-size="21" letter-spacing="5">STONEVEIL</text><text x="58" y="126" fill="#fff" font-family="system-ui" font-weight="900" font-size="42">ASCENT</text><text x="58" y="405" fill="#94a3b8" font-family="system-ui" font-weight="800" font-size="15" letter-spacing="3">READ THE WALL · KEEP YOUR GRIP</text></svg>
